<svg width="57" height="56" viewBox="0 0 57 56" fill="none" xmlns="http://www.w3.org/2000/svg">
<path d="M53.1836 24.9667V51.3333C53.1836 52.5778 52.7657 53.6667 51.9298 54.6C51.0939 55.5333 50.1187 56 49.0043 56H7.14108C6.02659 56 5.0514 55.5333 4.21553 54.6C3.37966 53.6667 2.96173 52.5778 2.96173 51.3333V24.9667C1.66149 23.7222 0.802397 22.1926 0.384462 20.3778C-0.0334729 18.563 0.0129642 16.7481 0.523774 14.9333L3.51898 4.43333C3.89047 3.03333 4.5406 1.94444 5.46934 1.16667C6.39809 0.388889 7.46614 0 8.67351 0H47.1932C48.4934 0 49.6312 0.401852 50.6063 1.20556C51.5815 2.00926 52.2549 3.08519 52.6264 4.43333L55.6912 14.9333C56.202 16.7481 56.2369 18.563 55.7957 20.3778C55.3545 22.1926 54.4838 23.7222 53.1836 24.9667ZM34.3765 22.5556C35.7232 22.5556 36.8609 22.063 37.7897 21.0778C38.7184 20.0926 39.0899 18.9 38.9042 17.5L37.1628 4.66667H30.1972V17.5C30.1972 18.8481 30.5919 20.0278 31.3813 21.0389C32.1708 22.05 33.1692 22.5556 34.3765 22.5556ZM21.3509 22.5556C22.6511 22.5556 23.754 22.063 24.6595 21.0778C25.5651 20.0926 26.0178 18.9 26.0178 17.5V4.66667H19.0522L17.3108 17.5C17.1251 18.8481 17.4501 20.0278 18.286 21.0389C19.1219 22.05 20.1435 22.5556 21.3509 22.5556ZM8.67351 22.5556C9.788 22.5556 10.7516 22.1278 11.5642 21.2722C12.3769 20.4167 12.8529 19.3667 12.9922 18.1222L14.8032 4.66667H7.83764L4.63347 16.0222C4.1691 17.6296 4.35485 19.1204 5.19072 20.4944C6.02659 21.8685 7.18752 22.5556 8.67351 22.5556ZM47.4718 22.5556C48.9578 22.5556 50.1304 21.8815 50.9894 20.5333C51.8485 19.1852 52.0459 17.6815 51.5815 16.0222L48.3773 4.66667H41.4118L43.2228 18.1222C43.3621 19.3667 43.8381 20.4167 44.6508 21.2722C45.4634 22.1278 46.4038 22.5556 47.4718 22.5556ZM7.14108 51.3333H49.0043V27.1444C49.0507 27.1963 48.8998 27.2222 48.5515 27.2222C48.2032 27.2222 47.8433 27.2222 47.4718 27.2222C46.3109 27.2222 45.208 26.95 44.1632 26.4056C43.1183 25.8611 42.0851 25.0185 41.0635 23.8778C40.3205 24.9148 39.3917 25.7315 38.2773 26.3278C37.1628 26.9241 35.9322 27.2222 34.5855 27.2222C33.1924 27.2222 31.9966 27.0019 30.9982 26.5611C29.9998 26.1204 29.0362 25.3815 28.1075 24.3444C27.4109 25.2778 26.5286 25.9907 25.4606 26.4833C24.3925 26.9759 23.1851 27.2222 21.8385 27.2222C20.3989 27.2222 19.1219 26.937 18.0074 26.3667C16.8929 25.7963 15.9409 24.9667 15.1515 23.8778C14.037 24.9667 12.9457 25.7963 11.8777 26.3667C10.8096 26.937 9.74157 27.2222 8.67351 27.2222C8.34845 27.2222 8.035 27.2222 7.73316 27.2222C7.43131 27.2222 7.23395 27.1963 7.14108 27.1444V51.3333ZM49.0043 51.3333H7.14108C7.23395 51.3333 7.43131 51.3333 7.73316 51.3333C8.035 51.3333 8.34845 51.3333 8.67351 51.3333C9.46294 51.3333 10.4033 51.3333 11.4946 51.3333C12.5858 51.3333 13.8048 51.3333 15.1515 51.3333C15.5694 51.3333 16.0338 51.3333 16.5446 51.3333C17.0554 51.3333 17.6011 51.3333 18.1815 51.3333C18.762 51.3333 19.3541 51.3333 19.9578 51.3333C20.5614 51.3333 21.1883 51.3333 21.8385 51.3333C22.3493 51.3333 22.8833 51.3333 23.4406 51.3333C23.9978 51.3333 24.555 51.3333 25.1123 51.3333C25.6695 51.3333 26.2036 51.3333 26.7144 51.3333C27.2252 51.3333 27.6896 51.3333 28.1075 51.3333C29.1291 51.3333 30.1507 51.3333 31.1724 51.3333C32.194 51.3333 33.3317 51.3333 34.5855 51.3333C35.2356 51.3333 35.8741 51.3333 36.501 51.3333C37.1279 51.3333 37.72 51.3333 38.2773 51.3333C38.8345 51.3333 39.3453 51.3333 39.8097 51.3333C40.2741 51.3333 40.692 51.3333 41.0635 51.3333C42.1315 51.3333 43.1996 51.3333 44.2677 51.3333C45.3357 51.3333 46.4038 51.3333 47.4718 51.3333C47.8433 51.3333 48.2032 51.3333 48.5515 51.3333C48.8998 51.3333 49.0507 51.3333 49.0043 51.3333Z" fill="#323238"/>
</svg>
