<svg width="48" height="56" viewBox="0 0 48 56" fill="none" xmlns="http://www.w3.org/2000/svg">
<path d="M4.72147 32.4211C4.72147 35.5158 5.42147 38.4263 6.82147 41.1526C8.22147 43.8789 10.1741 46.1509 12.6794 47.9684C12.4829 47.3789 12.3355 46.7772 12.2373 46.1632C12.139 45.5491 12.0899 44.9474 12.0899 44.3579C12.0899 42.786 12.3846 41.3123 12.9741 39.9368C13.5636 38.5614 14.4232 37.3088 15.553 36.1789L23.8794 28L32.2057 36.1789C33.3355 37.3088 34.1951 38.5614 34.7846 39.9368C35.3741 41.3123 35.6688 42.786 35.6688 44.3579C35.6688 44.9474 35.6197 45.5491 35.5215 46.1632C35.4232 46.7772 35.2759 47.3789 35.0794 47.9684C37.5846 46.1509 39.5373 43.8789 40.9373 41.1526C42.3373 38.4263 43.0373 35.5158 43.0373 32.4211C43.0373 29.7684 42.4723 27.1772 41.3425 24.6474C40.2127 22.1175 38.5916 19.7965 36.4794 17.6842C35.4478 18.4211 34.3671 18.9982 33.2373 19.4158C32.1074 19.8333 30.9776 20.0421 29.8478 20.0421C26.8513 20.0421 24.3706 19.0228 22.4057 16.9842C20.4408 14.9456 19.4583 12.3789 19.4583 9.28421V7.81053C17.1987 9.43158 15.1601 11.2246 13.3425 13.1895C11.525 15.1544 9.97761 17.2053 8.70041 19.3421C7.42322 21.4789 6.44076 23.6649 5.75305 25.9C5.06533 28.1351 4.72147 30.3088 4.72147 32.4211ZM23.8794 34.1895L18.6478 39.3474C17.9601 40.0351 17.432 40.7965 17.0636 41.6316C16.6952 42.4667 16.5109 43.3754 16.5109 44.3579C16.5109 46.3719 17.2232 48.0789 18.6478 49.4789C20.0723 50.8789 21.8162 51.5789 23.8794 51.5789C25.9425 51.5789 27.6864 50.8789 29.1109 49.4789C30.5355 48.0789 31.2478 46.3719 31.2478 44.3579C31.2478 43.3754 31.0636 42.4667 30.6951 41.6316C30.3267 40.7965 29.7987 40.0351 29.1109 39.3474L23.8794 34.1895ZM23.8794 0V9.72632C23.8794 11.3965 24.4566 12.7965 25.6109 13.9263C26.7653 15.0561 28.1776 15.6211 29.8478 15.6211C30.732 15.6211 31.5548 15.4368 32.3162 15.0684C33.0776 14.7 33.753 14.1474 34.3425 13.4105L35.6688 11.7895C39.3039 13.8526 42.1776 16.7263 44.2899 20.4105C46.4022 24.0947 47.4583 28.0982 47.4583 32.4211C47.4583 39.0035 45.1741 44.5789 40.6057 49.1474C36.0373 53.7158 30.4618 56 23.8794 56C17.2969 56 11.7215 53.7158 7.15305 49.1474C2.58463 44.5789 0.300415 39.0035 0.300415 32.4211C0.300415 26.1333 2.4127 20.0789 6.63726 14.2579C10.8618 8.43684 16.6092 3.68421 23.8794 0Z" fill="#323238"/>
</svg>
